<svg xmlns="http://www.w3.org/2000/svg" width="800" height="600" viewBox="0 0 800 600" role="img" aria-label="logo placeholder">
  <defs>
    <linearGradient id="bg" x1="0" y1="0" x2="1" y2="1">
      <stop offset="0" stop-color="#A0113D"/>
      <stop offset="1" stop-color="#E8587A"/>
    </linearGradient>
  </defs>
  <rect width="800" height="600" fill="url(#bg)"/>
  <g opacity="0.18">
    <circle cx="0" cy="0" r="260" fill="#ffffff"/>
    <circle cx="800" cy="600" r="300" fill="#ffffff"/>
  </g>
  <g opacity="0.12" fill="none" stroke="#ffffff" stroke-width="3">
    <path d="M0 60 H800 M0 120 H800 M0 180 H800 M0 240 H800 M0 300 H800 M0 360 H800 M0 420 H800 M0 480 H800 M0 540 H800"/>
    <path d="M60 0 V600 M120 0 V600 M180 0 V600 M240 0 V600 M300 0 V600 M360 0 V600 M420 0 V600 M480 0 V600 M540 0 V600 M600 0 V600 M660 0 V600 M720 0 V600"/>
  </g>
  <g>
  <rect x="285" y="235" width="230" height="250" rx="60" fill="rgba(255,255,255,0.92)" transform="rotate(-8 400 360)"/>
  <path d="M440 130 L300 385 L385 385 L360 590 L520 355 L430 355 Z" fill="rgba(255,255,255,0.95)"/>
</g>
  <text x="400" y="575" text-anchor="middle" font-family="Space Grotesk, sans-serif" font-size="20" font-weight="700" letter-spacing="2" fill="rgba(255,255,255,0.85)">VOLTIX - PLACEHOLDER</text>
</svg>
